# xmcd CD database file
#
# Track frame offsets:
#	150
#	18351
#	47256
#	73774
#	97545
#	122854
#	154447
#	186790
#	214824
#	236227
#	266188
#	286027
#
# Disc length: 4118 seconds
#
# Revision: 0
# Processed by: cddbd v1.5.2PL0 Copyright (c) Steve Scherf et al.
# Submitted via: CDex 1.99.1
#
DISCID=a710140c
DTITLE=Sean Higgins Trio - Three Years' Stories
DYEAR=2008
DGENRE=Jazz
TTITLE0=General Tso
TTITLE1=The Beauty In Mysticism
TTITLE2=Back In The Swing Of Things
TTITLE3=First Day In My New Life
TTITLE4=Almost Like Being In Love
TTITLE5=Bar 22
TTITLE6=Morning Glow (Asayake)
TTITLE7=Hurry Up and Wait
TTITLE8=Big Apple, Little Me
TTITLE9=When The Moment Ends
TTITLE10=In A Wink
TTITLE11=To Honor
EXTD=YEAR: 2008
EXTT0=
EXTT1=
EXTT2=
EXTT3=
EXTT4=
EXTT5=
EXTT6=
EXTT7=
EXTT8=
EXTT9=
EXTT10=
EXTT11=
PLAYORDER=
